# xmcd
#
# Track frame offsets:
#	150
#	26875
#	43570
#	57792
#	73217
#	89907
#	106620
#	120617
#	135977
#	157652
#
# Disc length: 2285 seconds
#
# Revision: 1
# Processed by: cddbd v1.4PL0 Copyright (c) Steve Scherf et al.
# Submitted via: audiograbber 1.81.03
#
DISCID=7f08eb0a
DTITLE=Elle Walker - Rose Coloured Glasses
DYEAR=1998
DGENRE=Country
TTITLE0=The Becoming
TTITLE1=You've Got A Nerve
TTITLE2=Buy My Love
TTITLE3=Fringes
TTITLE4=Angel Hearted Friend
TTITLE5=Obsession
TTITLE6=Life Rolls On
TTITLE7=The Plan
TTITLE8=Rose Coloured Glasses
TTITLE9=Lone Child
EXTD=
EXTT0=
EXTT1=
EXTT2=
EXTT3=
EXTT4=
EXTT5=
EXTT6=
EXTT7=
EXTT8=
EXTT9=
PLAYORDER=
